<svg width="24" height="23" viewBox="0 0 24 23" fill="none" xmlns="http://www.w3.org/2000/svg">
<path fill-rule="evenodd" clip-rule="evenodd" d="M8.94013 12.5242H17.3554C18.2026 12.5242 18.9481 12.061 19.3322 11.3607L23.3761 4.02979C23.4664 3.87165 23.5116 3.67962 23.5116 3.48759C23.5116 2.86633 23.0033 2.35802 22.382 2.35802H5.67566L4.61387 0.098877H0.920166V2.35802H3.17931L7.24577 10.9315L5.72085 13.6989C5.54011 14.0152 5.43845 14.388 5.43845 14.7833C5.43845 15.4426 5.72467 16.0383 6.17899 16.4523C6.5809 16.8185 7.11436 17.0425 7.6976 17.0425H21.2525V14.7833H8.17202C8.01388 14.7833 7.88962 14.6591 7.88962 14.5009L7.92351 14.3654L8.94013 12.5242ZM9.26615 10.5242H17.3554C17.46 10.5242 17.5397 10.4699 17.5786 10.399L17.5809 10.3947L20.9109 4.35802H6.34149L9.26615 10.5242ZM20.7721 19.0425C20.3576 18.5135 19.7134 18.172 18.9933 18.172C18.2732 18.172 17.6328 18.5135 17.2216 19.0425C16.9232 19.4262 16.7455 19.9087 16.7455 20.4312C16.7455 21.6737 17.7508 22.6903 18.9933 22.6903C20.2358 22.6903 21.2525 21.6737 21.2525 20.4312C21.2525 19.9087 21.0727 19.4262 20.7721 19.0425ZM9.47634 19.0425C9.06191 18.5135 8.41769 18.172 7.6976 18.172C7.11359 18.172 6.58198 18.3966 6.18253 18.7637C5.73213 19.1776 5.44975 19.7727 5.44975 20.4312C5.44975 21.6737 6.45507 22.6903 7.6976 22.6903C8.94013 22.6903 9.95674 21.6737 9.95674 20.4312C9.95674 19.9087 9.77701 19.4262 9.47634 19.0425ZM7.6976 20.172C7.57266 20.172 7.44975 20.2801 7.44975 20.4312C7.44975 20.5822 7.57266 20.6903 7.6976 20.6903C7.76264 20.6903 7.82587 20.6655 7.8789 20.6125C7.93194 20.5594 7.95674 20.4962 7.95674 20.4312C7.95674 20.3661 7.93194 20.3029 7.8789 20.2499C7.82587 20.1968 7.76264 20.172 7.6976 20.172ZM18.9933 20.172C18.8684 20.172 18.7455 20.2801 18.7455 20.4312C18.7455 20.5822 18.8684 20.6903 18.9933 20.6903C19.0584 20.6903 19.1216 20.6655 19.1746 20.6125C19.2277 20.5594 19.2525 20.4962 19.2525 20.4312C19.2525 20.3661 19.2277 20.3029 19.1746 20.2499C19.1216 20.1968 19.0584 20.172 18.9933 20.172Z" fill="#009EC5"/>
</svg>
