<svg width="34" height="28" viewBox="0 0 34 28" fill="none" xmlns="http://www.w3.org/2000/svg">
<path d="M11.7956 2.02159C17.8407 0.840395 22.9824 0.42334 26.1091 0.840315L28.7495 1.67405C28.1241 3.87433 25.9702 8.27494 25.4143 11.6101C24.8585 14.9453 15.4551 23.5149 10.8229 27.3828C10.7534 25.4373 10.5449 21.1015 10.267 19.3228C9.98907 17.544 5.61163 14.7369 3.45766 13.5557C3.80507 13.324 4.9446 12.6941 6.72336 12.027C8.94682 11.1932 11.3092 9.73409 7.69612 8.62236C4.80563 7.73298 1.85954 2.78577 0.747803 0.42334C2.4154 1.34982 6.95959 2.96655 11.7956 2.02159Z" fill="#009EC5"/>
<path d="M30.5508 2.73852L31.1391 1.32658H33.1865C33.2994 1.32658 33.5316 2.18943 33.6336 2.62086L32.7629 3.86807L33.3276 7.32732L31.7745 9.91587L30.7626 7.32732L31.4215 3.86807L30.5508 2.73852Z" fill="#009EC5"/>
</svg>
