<svg width="14" height="15" viewBox="0 0 14 15" fill="none" xmlns="http://www.w3.org/2000/svg">
<path d="M0.307396 14.2122C0.0480435 13.9528 0.0480433 13.5323 0.307396 13.273L12.4649 1.11553C12.7242 0.856182 13.1447 0.856183 13.4041 1.11554C13.6634 1.37489 13.6634 1.79538 13.4041 2.05473L1.24659 14.2122C0.98724 14.4715 0.566748 14.4715 0.307396 14.2122Z" fill="#009EC5"/>
<path d="M13.404 14.2122C13.6633 13.9528 13.6633 13.5323 13.404 13.273L1.2465 1.11553C0.987152 0.856182 0.566659 0.856183 0.307307 1.11554C0.047955 1.37489 0.0479548 1.79538 0.307307 2.05473L12.4648 14.2122C12.7241 14.4715 13.1446 14.4715 13.404 14.2122Z" fill="#009EC5"/>
</svg>
