<svg width="16" height="15" viewBox="0 0 16 15" xmlns="http://www.w3.org/2000/svg">
<path d="M11.6757 0.822388C10.3439 0.822388 9.06572 1.44235 8.23145 2.42204C7.39719 1.44235 6.119 0.822388 4.78724 0.822388C2.42986 0.822388 0.577637 2.67461 0.577637 5.03199C0.577637 7.92513 3.17993 10.2825 7.12165 13.8645L8.23145 14.8671L9.34126 13.8568C13.283 10.2825 15.8853 7.92513 15.8853 5.03199C15.8853 2.67461 14.033 0.822388 11.6757 0.822388ZM8.30799 12.7241L8.23145 12.8006L8.15491 12.7241C4.5117 9.42528 2.1084 7.24394 2.1084 5.03199C2.1084 3.50122 3.25647 2.35315 4.78724 2.35315C5.96592 2.35315 7.114 3.11088 7.51965 4.15945H8.95091C9.34891 3.11088 10.497 2.35315 11.6757 2.35315C13.2064 2.35315 14.3545 3.50122 14.3545 5.03199C14.3545 7.24394 11.9512 9.42528 8.30799 12.7241Z" fill="#009EC5"/>
</svg>
