<svg width="31" height="35" viewBox="0 0 31 35" fill="white" xmlns="http://www.w3.org/2000/svg">
<path d="M27.924 0.75281L19.447 8.396C20.3363 12.0646 17.2236 17.5215 15.556 19.7913C15.556 17.7763 16.1118 15.4834 15.556 12.7736C15.1651 10.8677 14.3748 9.50789 13.7495 8.81302L2.56272 13.8853C1.61312 14.2559 -0.0776368 15.4139 0.75616 17.0815C1.58996 18.7491 2.72485 18.6565 3.18807 18.4017L10.2059 14.997L9.64999 19.3744L0.408691 32.9236L8.81614 34.0354L6.24531 31.8119L15.556 22.8486H20.2114L17.0847 27.9903H25.6311L22.3654 26.0448C22.6433 25.4426 23.5605 23.8075 25.0057 22.0843C26.8123 19.9303 26.1175 18.4017 25.6311 18.4017H20.2114L22.3654 11.5229L30.5644 3.81024C30.8655 3.55543 31.287 2.74008 30.5644 1.51718C29.8418 0.294274 28.503 0.498056 27.924 0.75281Z" fill="white"/>
</svg>
