<svg width="19" height="19" viewBox="0 0 19 19" fill="none" xmlns="http://www.w3.org/2000/svg">
<path d="M13.1475 11.6309H12.3575L12.0775 11.3609C13.0575 10.2209 13.6475 8.74086 13.6475 7.13086C13.6475 3.54086 10.7375 0.630859 7.14746 0.630859C3.55746 0.630859 0.647461 3.54086 0.647461 7.13086C0.647461 10.7209 3.55746 13.6309 7.14746 13.6309C8.75746 13.6309 10.2375 13.0409 11.3775 12.0609L11.6475 12.3409V13.1309L16.6475 18.1209L18.1375 16.6309L13.1475 11.6309ZM7.14746 11.6309C4.65746 11.6309 2.64746 9.62086 2.64746 7.13086C2.64746 4.64086 4.65746 2.63086 7.14746 2.63086C9.63746 2.63086 11.6475 4.64086 11.6475 7.13086C11.6475 9.62086 9.63746 11.6309 7.14746 11.6309Z" fill="#009EC5"/>
</svg>
