<svg width="12" height="9" viewBox="0 0 12 9" fill="none" xmlns="http://www.w3.org/2000/svg">
<path d="M4.07999 8.66818C3.85582 8.44401 3.85582 8.08055 4.07999 7.85638L10.8436 1.09281C11.0677 0.868639 11.4312 0.868639 11.6554 1.09281C11.8795 1.31699 11.8795 1.68044 11.6554 1.90462L4.89179 8.66818C4.66762 8.89236 4.30416 8.89236 4.07999 8.66818Z" fill="#009EC5"/>
<path d="M4.83412 8.62757C4.60995 8.85174 4.24649 8.85174 4.02231 8.62757L0.602701 5.20796C0.378527 4.98379 0.378527 4.62033 0.6027 4.39616C0.826874 4.17199 1.19033 4.17199 1.41451 4.39616L4.83412 7.81576C5.05829 8.03994 5.05829 8.40339 4.83412 8.62757Z" fill="#009EC5"/>
</svg>
