<svg width="17" height="17" viewBox="0 0 17 17" fill="none" xmlns="http://www.w3.org/2000/svg">
<path d="M8.24097 2.54844C9.40097 2.54844 10.341 3.48844 10.341 4.64844C10.341 5.80844 9.40097 6.74844 8.24097 6.74844C7.08097 6.74844 6.14097 5.80844 6.14097 4.64844C6.14097 3.48844 7.08097 2.54844 8.24097 2.54844ZM8.24097 11.5484C11.211 11.5484 14.341 13.0084 14.341 13.6484V14.7484H2.14097V13.6484C2.14097 13.0084 5.27097 11.5484 8.24097 11.5484ZM8.24097 0.648438C6.03097 0.648438 4.24097 2.43844 4.24097 4.64844C4.24097 6.85844 6.03097 8.64844 8.24097 8.64844C10.451 8.64844 12.241 6.85844 12.241 4.64844C12.241 2.43844 10.451 0.648438 8.24097 0.648438ZM8.24097 9.64844C5.57097 9.64844 0.240967 10.9884 0.240967 13.6484V16.6484H16.241V13.6484C16.241 10.9884 10.911 9.64844 8.24097 9.64844Z" fill="#009EC5"/>
</svg>
