<svg width="16" height="22" viewBox="0 0 16 22" fill="none" xmlns="http://www.w3.org/2000/svg">
<path fill-rule="evenodd" clip-rule="evenodd" d="M0.0510254 7.82078C0.0510254 3.61362 3.38378 0.170776 7.55103 0.170776C11.7183 0.170776 15.051 3.61362 15.051 7.82078C15.051 9.26544 14.5858 10.8071 13.9514 12.2557C13.3115 13.717 12.4668 15.1566 11.6358 16.4166C10.803 17.6795 9.97211 18.7798 9.35008 19.5639C9.03863 19.9565 8.77849 20.2712 8.59523 20.4888C8.50358 20.5976 8.43109 20.6823 8.38095 20.7404L8.32288 20.8073L8.30715 20.8253L8.30274 20.8303L8.30141 20.8318C8.30125 20.832 8.30068 20.8326 7.55103 20.1708C6.80137 20.8326 6.80124 20.8325 6.80108 20.8323L6.79932 20.8303L6.7949 20.8253L6.77917 20.8073L6.7211 20.7404C6.67096 20.6823 6.59847 20.5976 6.50682 20.4888C6.32357 20.2712 6.06342 19.9565 5.75197 19.5639C5.12994 18.7798 4.29903 17.6795 3.46622 16.4166C2.63524 15.1566 1.79051 13.717 1.15063 12.2557C0.516287 10.8071 0.0510254 9.26544 0.0510254 7.82078ZM7.55103 20.1708L6.80108 20.8323L7.55103 21.6817L8.30068 20.8326L7.55103 20.1708ZM7.55102 18.6111C7.47771 18.5203 7.40014 18.4235 7.31883 18.321C6.72211 17.5688 5.92802 16.5168 5.13583 15.3155C4.34181 14.1115 3.56154 12.7754 2.98267 11.4534C2.39826 10.1188 2.05103 8.86986 2.05103 7.82078C2.05103 4.67493 4.53112 2.17078 7.55103 2.17078C10.5709 2.17078 13.051 4.67493 13.051 7.82078C13.051 8.86986 12.7038 10.1188 12.1194 11.4534C11.5405 12.7754 10.7602 14.1115 9.96622 15.3155C9.17403 16.5168 8.37994 17.5688 7.78322 18.321C7.70191 18.4235 7.62434 18.5203 7.55102 18.6111ZM7.55103 6.44578C6.84327 6.44578 6.2296 7.04043 6.2296 7.82078C6.2296 8.60112 6.84327 9.19578 7.55103 9.19578C8.25878 9.19578 8.87245 8.60112 8.87245 7.82078C8.87245 7.04043 8.25878 6.44578 7.55103 6.44578ZM4.2296 7.82078C4.2296 5.97912 5.69593 4.44578 7.55103 4.44578C9.40612 4.44578 10.8725 5.97912 10.8725 7.82078C10.8725 9.66243 9.40612 11.1958 7.55103 11.1958C5.69593 11.1958 4.2296 9.66243 4.2296 7.82078Z" fill="#009EC5"/>
</svg>
