<svg width="23" height="23" viewBox="0 0 23 23" fill="none" xmlns="http://www.w3.org/2000/svg">
<path d="M9.69782 6.77017L9.69564 6.76323L9.69336 6.75632C9.35657 5.73687 9.17383 4.64273 9.17383 3.5C9.17383 2.39772 8.27611 1.5 7.17383 1.5H3.67383C2.57154 1.5 1.67383 2.39772 1.67383 3.5C1.67383 13.4423 9.73154 21.5 19.6738 21.5C20.7761 21.5 21.6738 20.6023 21.6738 19.5V16.01C21.6738 14.9077 20.7761 14.01 19.6738 14.01C18.5422 14.01 17.4396 13.8276 16.4217 13.4919C15.711 13.2509 14.9142 13.4354 14.3767 13.9729L12.7053 15.6443C10.5567 14.4016 8.76353 12.6137 7.52831 10.4697L9.20093 8.79711C9.7559 8.24214 9.91456 7.45979 9.69782 6.77017Z" stroke="#1D9ABE" stroke-width="2"/>
</svg>
