<svg width="23" height="23" viewBox="0 0 23 23" fill="none" xmlns="http://www.w3.org/2000/svg">
<path fill-rule="evenodd" clip-rule="evenodd" d="M6.14294 10.4604C6.30411 10.7772 6.47582 11.0879 6.65852 11.3911C8.07154 13.7364 10.1129 15.6635 12.5427 16.952C12.6057 16.9854 12.6689 17.0184 12.7325 17.0509L14.9325 14.8509C15.2025 14.5809 15.6025 14.4909 15.9525 14.6109C17.0725 14.9809 18.2825 15.1809 19.5225 15.1809C20.0725 15.1809 20.5225 15.6309 20.5225 16.1809V19.6709C20.5225 20.2209 20.0725 20.6709 19.5225 20.6709C17.2758 20.6709 15.131 20.2353 13.168 19.4438C12.7085 19.2586 12.2591 19.0539 11.8206 18.8307C11.7965 18.8184 11.7725 18.8061 11.7485 18.7938C8.76946 17.2595 6.30256 14.8709 4.67152 11.9516C4.56407 11.7593 4.46025 11.5646 4.36015 11.3678C4.13795 10.9309 3.93408 10.4831 3.74955 10.0254C2.95811 8.06236 2.52246 5.91758 2.52246 3.6709C2.52246 3.1209 2.97246 2.6709 3.52246 2.6709H7.02246C7.57246 2.6709 8.02246 3.1209 8.02246 3.6709C8.02246 4.9209 8.22246 6.1209 8.59246 7.2409C8.70246 7.5909 8.62246 7.9809 8.34246 8.2609L6.14294 10.4604ZM16.587 12.7142C17.5031 13.016 18.4988 13.1809 19.5225 13.1809C21.177 13.1809 22.5225 14.5263 22.5225 16.1809V19.6709C22.5225 21.3255 21.177 22.6709 19.5225 22.6709C9.02789 22.6709 0.522461 14.1655 0.522461 3.6709C0.522461 2.01633 1.86789 0.670898 3.52246 0.670898H7.02246C8.67703 0.670898 10.0225 2.01633 10.0225 3.6709C10.0225 4.70636 10.188 5.69463 10.4915 6.61353L10.4961 6.62736L10.5004 6.64125C10.8239 7.67048 10.5866 8.84518 9.75667 9.67511L8.64254 10.7892C9.62372 12.2818 10.9078 13.5632 12.4059 14.549L13.5182 13.4367C14.323 12.632 15.5159 12.3529 16.587 12.7142Z" fill="#009EC5"/>
</svg>
