<?xml version="1.0" encoding="utf-8"?><svg viewBox="0 0 512 512" xmlns="http://www.w3.org/2000/svg" xmlns:xlink="http://www.w3.org/1999/xlink"><style>:root>svg{display:none}:root>svg:target{display:block}</style><svg viewBox="0 0 17 17" id="account" xmlns="http://www.w3.org/2000/svg"><path d="M8.241 2.548a2.1 2.1 0 110 4.2 2.1 2.1 0 010-4.2zm0 9c2.97 0 6.1 1.46 6.1 2.1v1.1h-12.2v-1.1c0-.64 3.13-2.1 6.1-2.1zm0-10.9c-2.21 0-4 1.79-4 4s1.79 4 4 4 4-1.79 4-4-1.79-4-4-4zm0 9c-2.67 0-8 1.34-8 4v3h16v-3c0-2.66-5.33-4-8-4z"/></svg><svg viewBox="0 0 8 13" id="arrow-right" xmlns="http://www.w3.org/2000/svg"><path d="M.566 10.791l4.58-4.59-4.58-4.59 1.41-1.41 6 6-6 6-1.41-1.41z"/></svg><svg viewBox="0 0 24 23" id="cart" xmlns="http://www.w3.org/2000/svg"><path fill-rule="evenodd" clip-rule="evenodd" d="M8.94 12.524h8.415c.848 0 1.593-.463 1.977-1.163l4.044-7.331a1.133 1.133 0 00-.994-1.672H5.676L4.614.098H.92v2.26h2.26l4.066 8.573L5.72 13.7a2.19 2.19 0 00-.283 1.084c0 .66.287 1.255.741 1.67.402.366.935.59 1.519.59h13.555v-2.26H8.172a.28.28 0 01-.282-.282l.034-.136 1.016-1.84zm.326-2h8.09a.249.249 0 00.223-.125l.002-.004 3.33-6.037H6.34l2.925 6.166zm11.506 8.519a2.259 2.259 0 00-1.779-.871 2.256 2.256 0 00-2.248 2.26 2.256 2.256 0 002.248 2.258 2.266 2.266 0 002.26-2.259c0-.522-.18-1.005-.48-1.389zm-11.296 0a2.259 2.259 0 00-1.778-.871 2.26 2.26 0 00-2.248 2.26 2.256 2.256 0 002.248 2.258 2.266 2.266 0 002.259-2.259c0-.522-.18-1.005-.48-1.389zm-1.778 1.129a.256.256 0 00-.248.26c0 .15.123.258.248.258a.252.252 0 00.18-.078.253.253 0 00.079-.18.252.252 0 00-.078-.182.252.252 0 00-.181-.078zm11.295 0a.256.256 0 00-.247.26c0 .15.122.258.247.258a.252.252 0 00.182-.078.252.252 0 00.078-.18.252.252 0 00-.078-.182.252.252 0 00-.182-.078z"/></svg><svg viewBox="0 0 12 9" id="checkbox" xmlns="http://www.w3.org/2000/svg"><path d="M4.08 8.668a.574.574 0 010-.812l6.764-6.763a.574.574 0 11.811.812L4.892 8.668a.574.574 0 01-.812 0z"/><path d="M4.834 8.628a.574.574 0 01-.812 0l-3.42-3.42a.574.574 0 11.813-.812l3.42 3.42a.574.574 0 010 .812z"/></svg><svg viewBox="0 0 34 28" id="coat-men" xmlns="http://www.w3.org/2000/svg"><path d="M11.796 2.022C17.84.84 22.982.423 26.109.84l2.64.834c-.625 2.2-2.779 6.6-3.335 9.936-.556 3.335-9.959 11.905-14.591 15.773-.07-1.946-.278-6.281-.556-8.06-.278-1.779-4.655-4.586-6.81-5.767.348-.232 1.488-.862 3.266-1.529 2.224-.834 4.586-2.293.973-3.405C4.806 7.733 1.86 2.786.748.423c1.667.927 6.212 2.544 11.048 1.599zm18.754.717l.59-1.412h2.047c.112 0 .345.862.447 1.294l-.871 1.247.565 3.46-1.554 2.588-1.011-2.589.659-3.459-.871-1.13z"/></svg><svg viewBox="0 0 14 17" id="compare" xmlns="http://www.w3.org/2000/svg"><path d="M10.343.822H1.591C.789.822.132 1.478.132 2.28v10.212h1.459V2.28h8.752V.823zm2.188 2.917H4.508c-.802 0-1.458.657-1.458 1.459v10.211c0 .802.656 1.459 1.458 1.459h8.023c.803 0 1.46-.657 1.46-1.459V5.198c0-.802-.657-1.459-1.46-1.459zm0 11.67H4.508V5.198h8.023v10.211z"/></svg><svg viewBox="0 0 14 15" id="cross" xmlns="http://www.w3.org/2000/svg"><path d="M.307 14.212a.664.664 0 010-.939L12.465 1.116a.664.664 0 01.94.939L1.246 14.212c-.26.26-.68.26-.94 0z"/><path d="M13.404 14.212c.26-.26.26-.68 0-.939L1.246 1.116a.664.664 0 00-.939.939l12.158 12.157c.26.26.68.26.939 0z"/></svg><svg viewBox="-57 0 512 512" id="delete" xmlns="http://www.w3.org/2000/svg"><path d="M156.371 30.906h85.57v14.399h30.903V28.89C272.848 12.96 259.894 0 243.973 0H154.34c-15.922 0-28.875 12.96-28.875 28.89v16.415h30.906zM344.21 167.75H54.103c-7.95 0-14.207 6.781-13.567 14.707L64.79 482.363C66.141 499.105 80.105 512 96.883 512h204.543c16.777 0 30.742-12.895 32.094-29.64l24.253-299.903c.645-7.926-5.613-14.707-13.562-14.707zM124.349 480.012c-.325.02-.649.031-.97.031-8.1 0-14.901-6.309-15.405-14.504l-15.2-246.207c-.523-8.52 5.957-15.852 14.473-16.375 8.488-.516 15.852 5.95 16.375 14.473l15.195 246.207c.528 8.52-5.953 15.847-14.468 16.375zm90.433-15.422c0 8.531-6.918 15.45-15.453 15.45s-15.453-6.919-15.453-15.45V218.379c0-8.535 6.918-15.453 15.453-15.453 8.531 0 15.453 6.918 15.453 15.453zm90.758-245.3l-14.512 246.206c-.48 8.211-7.293 14.543-15.41 14.543-.304 0-.613-.008-.922-.023-8.52-.504-15.02-7.817-14.515-16.336l14.508-246.211c.5-8.52 7.789-15.02 16.332-14.516 8.52.5 15.02 7.817 14.52 16.336zm92.108-99.227L387.5 89.64a19.65 19.65 0 00-18.64-13.43H29.45a19.646 19.646 0 00-18.637 13.43L.664 120.062c-1.957 5.868.59 11.852 5.344 14.836a12.624 12.624 0 006.75 1.946h372.797c2.52 0 4.816-.73 6.75-1.95 4.754-2.984 7.3-8.968 5.343-14.832zm0 0"/></svg><svg viewBox="0 0 512 512" id="facebook" xmlns="http://www.w3.org/2000/svg"><path d="M475.074 0H36.926C16.53 0 0 16.531 0 36.926v438.148C0 495.47 16.531 512 36.926 512H273.5V314H207v-77.5h66.5v-57.035c0-66.14 40.379-102.14 99.379-102.14 28.258 0 52.543 2.105 59.621 3.046V149.5h-40.684c-32.101 0-38.316 15.254-38.316 37.64v49.36h76.75l-10 77.5H353.5v198h121.574C495.47 512 512 495.469 512 475.074V36.926C512 16.53 495.469 0 475.074 0zm0 0"/></svg><svg viewBox="0 0 16 15" id="favourite" xmlns="http://www.w3.org/2000/svg"><path d="M11.676.822c-1.332 0-2.61.62-3.445 1.6a4.583 4.583 0 00-3.444-1.6 4.169 4.169 0 00-4.21 4.21c0 2.893 2.603 5.25 6.545 8.832l1.11 1.003 1.11-1.01c3.941-3.574 6.543-5.932 6.543-8.825a4.169 4.169 0 00-4.21-4.21zM8.308 12.724l-.077.077-.076-.077c-3.643-3.299-6.047-5.48-6.047-7.692 0-1.53 1.148-2.679 2.68-2.679 1.178 0 2.326.758 2.732 1.806h1.43c.399-1.048 1.547-1.806 2.726-1.806 1.53 0 2.678 1.148 2.678 2.679 0 2.212-2.403 4.393-6.046 7.692z"/></svg><svg viewBox="0 0 502.664 502.664" id="icon" xmlns="http://www.w3.org/2000/svg"><path d="M153.821 358.226L0 274.337v-46.463l153.821-83.414v54.574L46.636 250.523l107.185 53.431v54.272zm26.273 29.358L282.103 115.08h32.227L212.084 387.584h-31.99zm168.749-29.358v-54.272l107.164-52.999-107.164-52.59v-53.927l153.821 83.522v46.183l-153.821 84.083z"/></svg><svg viewBox="0 0 438.536 438.536" id="insta" xmlns="http://www.w3.org/2000/svg"><path d="M421.981 16.562C410.941 5.519 397.711 0 382.298 0H56.248C40.83 0 27.604 5.521 16.561 16.562 5.52 27.6.001 40.828.001 56.243V382.29c0 15.413 5.518 28.644 16.56 39.683 11.043 11.04 24.272 16.563 39.687 16.563h326.046c15.41 0 28.644-5.523 39.684-16.563 11.043-11.039 16.557-24.27 16.557-39.683V56.243c-.001-15.418-5.514-28.639-16.554-39.681zM157.462 158.025c17.224-16.652 37.924-24.982 62.097-24.982 24.36 0 45.153 8.33 62.381 24.982 17.228 16.655 25.837 36.785 25.837 60.386 0 23.598-8.609 43.729-25.837 60.379-17.228 16.659-38.014 24.988-62.381 24.988-24.172 0-44.87-8.336-62.097-24.988-17.228-16.652-25.841-36.781-25.841-60.379 0-23.601 8.613-43.73 25.841-60.386zm231.403 212.564c0 4.945-1.718 9.083-5.141 12.416-3.433 3.33-7.519 4.996-12.282 4.996h-305.2c-4.948 0-9.091-1.666-12.419-4.996-3.333-3.326-4.998-7.471-4.998-12.416V185.575H89.08c-3.805 11.993-5.708 24.462-5.708 37.402 0 36.553 13.322 67.715 39.969 93.511 26.65 25.786 58.721 38.685 96.217 38.685 24.744 0 47.583-5.903 68.527-17.703 20.937-11.807 37.486-27.839 49.676-48.112 12.183-20.272 18.274-42.4 18.274-66.38 0-12.94-1.91-25.406-5.715-37.402h38.547V370.59h-.002zm0-254.963c0 5.52-1.903 10.184-5.716 13.99-3.805 3.809-8.466 5.711-13.989 5.711h-49.676c-5.517 0-10.185-1.903-13.99-5.711-3.806-3.806-5.708-8.47-5.708-13.99V68.522c0-5.33 1.902-9.945 5.708-13.848 3.806-3.901 8.474-5.854 13.99-5.854h49.676c5.523 0 10.185 1.952 13.989 5.854 3.812 3.903 5.716 8.518 5.716 13.848v47.104z"/></svg><svg viewBox="0 0 16 22" id="location" xmlns="http://www.w3.org/2000/svg"><path d="M8.098 1c-3.594 0-6.5 2.974-6.5 6.65 0 4.987 6.5 12.35 6.5 12.35s6.5-7.363 6.5-12.35c0-3.677-2.907-6.65-6.5-6.65zm0 9.025c-1.282 0-2.322-1.064-2.322-2.375s1.04-2.375 2.322-2.375c1.281 0 2.321 1.064 2.321 2.375s-1.04 2.375-2.321 2.375z"/></svg><svg viewBox="0 0 16 22" id="locationsvg" xmlns="http://www.w3.org/2000/svg"><path fill-rule="evenodd" clip-rule="evenodd" d="M.051 7.82c0-4.206 3.333-7.65 7.5-7.65s7.5 3.444 7.5 7.65c0 1.445-.465 2.987-1.1 4.436-.64 1.461-1.484 2.9-2.315 4.16A45.09 45.09 0 018.38 20.74l-.058.067-.016.018-.004.005-.002.002-.75-.661-.75.661-.002-.002-.004-.005-.016-.018-.058-.067c-.05-.058-.123-.142-.214-.251a45.092 45.092 0 01-3.04-4.072c-.832-1.26-1.676-2.7-2.316-4.161C.516 10.807.05 9.266.05 7.82zm7.5 12.35l-.75.662.75.85.75-.85-.75-.661zm0-1.559a43.17 43.17 0 01-2.415-3.296c-.794-1.204-1.574-2.54-2.153-3.862-.585-1.334-.932-2.583-.932-3.632 0-3.146 2.48-5.65 5.5-5.65s5.5 2.504 5.5 5.65c0 1.049-.347 2.298-.932 3.632-.579 1.322-1.359 2.659-2.153 3.863a43.1 43.1 0 01-2.415 3.295zm0-12.165c-.708 0-1.321.594-1.321 1.375 0 .78.613 1.375 1.321 1.375S8.872 8.6 8.872 7.82 8.26 6.446 7.551 6.446zM4.23 7.82c0-1.842 1.466-3.375 3.321-3.375 1.855 0 3.322 1.533 3.322 3.375 0 1.841-1.467 3.375-3.322 3.375S4.23 9.662 4.23 7.82z"/></svg><svg viewBox="0 0 19 15" id="mailsvg" xmlns="http://www.w3.org/2000/svg"><path d="M16.346.926h-14.4c-.99 0-1.791.788-1.791 1.75l-.009 10.5c0 .963.81 1.75 1.8 1.75h14.4c.99 0 1.8-.787 1.8-1.75v-10.5c0-.962-.81-1.75-1.8-1.75zm0 12.25h-14.4v-8.75l7.2 4.375 7.2-4.375v8.75zm-7.2-6.125l-7.2-4.375h14.4l-7.2 4.375z"/></svg><svg viewBox="0 0 31 35" id="men" xmlns="http://www.w3.org/2000/svg"><path d="M27.924.753l-8.477 7.643c.89 3.669-2.223 9.125-3.891 11.395 0-2.015.556-4.308 0-7.017-.39-1.906-1.181-3.266-1.806-3.961L2.563 13.885c-.95.37-2.64 1.529-1.807 3.196.834 1.668 1.969 1.576 2.432 1.32l7.018-3.404-.556 4.377-9.241 13.55 8.407 1.111-2.57-2.223 9.31-8.963h4.655l-3.126 5.141h8.546l-3.266-1.945c.278-.602 1.196-2.238 2.64-3.96 1.807-2.155 1.113-3.683.626-3.683h-5.42l2.154-6.88 8.2-7.712c.3-.255.722-1.07 0-2.293C29.841.294 28.502.498 27.923.753z"/></svg><svg viewBox="0 0 8 2" id="minus" xmlns="http://www.w3.org/2000/svg"><path d="M.987.785h6.83v.983H.987z"/></svg><svg viewBox="0 0 95.481 95.481" id="ok" xmlns="http://www.w3.org/2000/svg"><path d="M43.041 67.254c-7.402-.772-14.076-2.595-19.79-7.064-.709-.556-1.441-1.092-2.088-1.713-2.501-2.402-2.753-5.153-.774-7.988 1.693-2.426 4.535-3.075 7.489-1.682.572.27 1.117.607 1.639.969 10.649 7.317 25.278 7.519 35.967.329 1.059-.812 2.191-1.474 3.503-1.812 2.551-.655 4.93.282 6.299 2.514 1.564 2.549 1.544 5.037-.383 7.016-2.956 3.034-6.511 5.229-10.461 6.761-3.735 1.448-7.826 2.177-11.875 2.661.611.665.899.992 1.281 1.376 5.498 5.524 11.02 11.025 16.5 16.566 1.867 1.888 2.257 4.229 1.229 6.425-1.124 2.4-3.64 3.979-6.107 3.81-1.563-.108-2.782-.886-3.865-1.977-4.149-4.175-8.376-8.273-12.441-12.527-1.183-1.237-1.752-1.003-2.796.071-4.174 4.297-8.416 8.528-12.683 12.735-1.916 1.889-4.196 2.229-6.418 1.15-2.362-1.145-3.865-3.556-3.749-5.979.08-1.639.886-2.891 2.011-4.014 5.441-5.433 10.867-10.88 16.295-16.322.359-.362.694-.746 1.217-1.305z"/><path d="M47.55 48.329c-13.205-.045-24.033-10.992-23.956-24.218C23.67 10.739 34.505-.037 47.84 0c13.362.036 24.087 10.967 24.02 24.478-.068 13.199-10.971 23.897-24.31 23.851zm12.001-24.186c-.023-6.567-5.253-11.795-11.807-11.801-6.609-.007-11.886 5.316-11.835 11.943.049 6.542 5.324 11.733 11.896 11.709 6.552-.023 11.768-5.285 11.746-11.851z"/></svg><svg viewBox="0 0 23 23" id="phone" xmlns="http://www.w3.org/2000/svg"><path d="M9.698 6.77l-.002-.007-.003-.007a10.36 10.36 0 01-.52-3.256c0-1.102-.897-2-2-2h-3.5c-1.101 0-2 .898-2 2 0 9.942 8.059 18 18 18 1.103 0 2-.898 2-2v-3.49c0-1.102-.897-2-2-2a10.41 10.41 0 01-3.251-.518 1.994 1.994 0 00-2.045.48l-1.672 1.672a14.159 14.159 0 01-5.177-5.174l1.673-1.673a2.003 2.003 0 00.497-2.027z"/></svg><svg viewBox="0 0 8 9" id="plus" xmlns="http://www.w3.org/2000/svg"><path d="M4.267 3.672h2.776v1.196H4.267v3.145H2.996V4.868H.22V3.672h2.776V.767h1.271v2.905z"/></svg><svg viewBox="0 0 19 19" id="search" xmlns="http://www.w3.org/2000/svg"><path d="M13.148 11.63h-.79l-.28-.27a6.471 6.471 0 001.57-4.23 6.5 6.5 0 10-6.5 6.5c1.61 0 3.09-.59 4.23-1.57l.27.28v.79l5 4.99 1.49-1.49-4.99-5zm-6 0c-2.49 0-4.5-2.01-4.5-4.5s2.01-4.5 4.5-4.5 4.5 2.01 4.5 4.5-2.01 4.5-4.5 4.5z"/></svg><svg viewBox="0 0 300 300" id="telegram" xmlns="http://www.w3.org/2000/svg"><path d="M5.299 144.645l69.126 25.8 26.756 86.047c1.712 5.511 8.451 7.548 12.924 3.891l38.532-31.412a11.496 11.496 0 0114.013-.391l69.498 50.457c4.785 3.478 11.564.856 12.764-4.926L299.823 29.22c1.31-6.316-4.896-11.585-10.91-9.259L5.218 129.402c-7.001 2.7-6.94 12.612.081 15.243zm91.57 12.066l135.098-83.207c2.428-1.491 4.926 1.792 2.841 3.726L123.313 180.87a23.112 23.112 0 00-7.163 13.829l-3.798 28.146c-.503 3.758-5.782 4.131-6.819.494l-14.607-51.325c-1.673-5.854.765-12.107 5.943-15.303z"/></svg><svg viewBox="0 0 23 23" id="telephone" xmlns="http://www.w3.org/2000/svg"><path fill-rule="evenodd" clip-rule="evenodd" d="M6.143 10.46c.161.317.333.628.516.931a15.174 15.174 0 006.074 5.66l2.2-2.2c.27-.27.67-.36 1.02-.24 1.12.37 2.33.57 3.57.57.55 0 1 .45 1 1v3.49c0 .55-.45 1-1 1a16.955 16.955 0 01-7.702-1.84l-.072-.037a17.075 17.075 0 01-8-8.769 16.956 16.956 0 01-1.227-6.354c0-.55.45-1 1-1h3.5c.55 0 1 .45 1 1 0 1.25.2 2.45.57 3.57.11.35.03.74-.25 1.02l-2.2 2.2zm10.444 2.254a9.408 9.408 0 002.936.467c1.654 0 3 1.345 3 3v3.49c0 1.655-1.346 3-3 3-10.495 0-19-8.505-19-19 0-1.655 1.345-3 3-3h3.5c1.654 0 3 1.345 3 3 0 1.035.165 2.024.469 2.943l.004.013.004.014a3.003 3.003 0 01-.743 3.034L8.643 10.79a13.167 13.167 0 003.763 3.76l1.112-1.112a2.994 2.994 0 013.069-.723z"/></svg><svg viewBox="0 0 512 512" id="tik-tok" xmlns="http://www.w3.org/2000/svg"><path d="M480.32 128.39c-29.22 0-56.18-9.68-77.83-26.01-24.83-18.72-42.67-46.18-48.97-77.83A129.78 129.78 0 01351.04.39h-83.47v228.08l-.1 124.93c0 33.4-21.75 61.72-51.9 71.68a75.905 75.905 0 01-28.04 3.72c-12.56-.69-24.33-4.48-34.56-10.6-21.77-13.02-36.53-36.64-36.93-63.66-.63-42.23 33.51-76.66 75.71-76.66 8.33 0 16.33 1.36 23.82 3.83v-84.75c-7.9-1.17-15.94-1.78-24.07-1.78-46.19 0-89.39 19.2-120.27 53.79-23.34 26.14-37.34 59.49-39.5 94.46-2.83 45.94 13.98 89.61 46.58 121.83 4.79 4.73 9.82 9.12 15.08 13.17 27.95 21.51 62.12 33.17 98.11 33.17 8.13 0 16.17-.6 24.07-1.77 33.62-4.98 64.64-20.37 89.12-44.57 30.08-29.73 46.7-69.2 46.88-111.21l-.43-186.56a210.864 210.864 0 0046.88 27.34c26.19 11.05 53.96 16.65 82.54 16.64v-83.1c.02.02-.22.02-.24.02z"/></svg><svg viewBox="0 0 512 512" id="twitter" xmlns="http://www.w3.org/2000/svg"><path d="M512 97.248c-19.04 8.352-39.328 13.888-60.48 16.576 21.76-12.992 38.368-33.408 46.176-58.016-20.288 12.096-42.688 20.64-66.56 25.408C411.872 60.704 384.416 48 354.464 48c-58.112 0-104.896 47.168-104.896 104.992 0 8.32.704 16.32 2.432 23.936-87.264-4.256-164.48-46.08-216.352-109.792-9.056 15.712-14.368 33.696-14.368 53.056 0 36.352 18.72 68.576 46.624 87.232-16.864-.32-33.408-5.216-47.424-12.928v1.152c0 51.008 36.384 93.376 84.096 103.136-8.544 2.336-17.856 3.456-27.52 3.456-6.72 0-13.504-.384-19.872-1.792 13.6 41.568 52.192 72.128 98.08 73.12-35.712 27.936-81.056 44.768-130.144 44.768-8.608 0-16.864-.384-25.12-1.44C46.496 446.88 101.6 464 161.024 464c193.152 0 298.752-160 298.752-298.688 0-4.64-.16-9.12-.384-13.568 20.832-14.784 38.336-33.248 52.608-54.496z"/></svg><svg viewBox="0 0 511.962 511.962" id="vk" xmlns="http://www.w3.org/2000/svg"><path d="M250.503 400.807h30.592s9.248-1.024 13.952-6.112c4.352-4.672 4.192-13.44 4.192-13.44s-.608-41.056 18.464-47.104c18.784-5.952 42.912 39.68 68.48 57.248 19.328 13.28 34.016 10.368 34.016 10.368l68.384-.96s35.776-2.208 18.816-30.336c-1.376-2.304-9.888-20.8-50.848-58.816-42.88-39.808-37.12-33.344 14.528-102.176 31.456-41.92 44.032-67.52 40.096-78.464-3.744-10.432-26.88-7.68-26.88-7.68l-76.928.448s-5.696-.768-9.952 1.76c-4.128 2.496-6.784 8.256-6.784 8.256s-12.192 32.448-28.448 60.032c-34.272 58.208-48 61.28-53.6 57.664-13.024-8.416-9.76-33.856-9.76-51.904 0-56.416 8.544-79.936-16.672-86.016-8.384-2.016-14.528-3.36-35.936-3.584-27.456-.288-50.72.096-63.872 6.528-8.768 4.288-15.52 13.856-11.392 14.4 5.088.672 16.608 3.104 22.72 11.424 7.904 10.72 7.616 34.848 7.616 34.848s4.544 66.4-10.592 74.656c-10.4 5.664-24.64-5.888-55.2-58.72-15.648-27.04-27.488-56.96-27.488-56.96s-2.272-5.568-6.336-8.544c-4.928-3.616-11.84-4.768-11.84-4.768l-73.152.448s-10.976.32-15.008 5.088c-3.584 4.256-.288 13.024-.288 13.024s57.28 133.984 122.112 201.536c59.488 61.92 127.008 57.856 127.008 57.856z"/></svg><svg viewBox="0 0 512 512" id="whatsapp" xmlns="http://www.w3.org/2000/svg"><path d="M256.064 0h-.128C114.784 0 0 114.816 0 256c0 56 18.048 107.904 48.736 150.048l-31.904 95.104 98.4-31.456C155.712 496.512 204 512 256.064 512 397.216 512 512 397.152 512 256S397.216 0 256.064 0zm148.96 361.504c-6.176 17.44-30.688 31.904-50.24 36.128-13.376 2.848-30.848 5.12-89.664-19.264-75.232-31.168-123.68-107.616-127.456-112.576-3.616-4.96-30.4-40.48-30.4-77.216s18.656-54.624 26.176-62.304c6.176-6.304 16.384-9.184 26.176-9.184 3.168 0 6.016.16 8.576.288 7.52.32 11.296.768 16.256 12.64 6.176 14.88 21.216 51.616 23.008 55.392 1.824 3.776 3.648 8.896 1.088 13.856-2.4 5.12-4.512 7.392-8.288 11.744-3.776 4.352-7.36 7.68-11.136 12.352-3.456 4.064-7.36 8.416-3.008 15.936 4.352 7.36 19.392 31.904 41.536 51.616 28.576 25.44 51.744 33.568 60.032 37.024 6.176 2.56 13.536 1.952 18.048-2.848 5.728-6.176 12.8-16.416 20-26.496 5.12-7.232 11.584-8.128 18.368-5.568 6.912 2.4 43.488 20.48 51.008 24.224 7.52 3.776 12.48 5.568 14.304 8.736 1.792 3.168 1.792 18.048-4.384 35.52z"/></svg><svg viewBox="0 0 512 512" id="youtube" xmlns="http://www.w3.org/2000/svg"><path d="M490.24 113.92c-13.888-24.704-28.96-29.248-59.648-30.976C399.936 80.864 322.848 80 256.064 80c-66.912 0-144.032.864-174.656 2.912-30.624 1.76-45.728 6.272-59.744 31.008C7.36 138.592 0 181.088 0 255.904v.256c0 74.496 7.36 117.312 21.664 141.728 14.016 24.704 29.088 29.184 59.712 31.264C112.032 430.944 189.152 432 256.064 432c66.784 0 143.872-1.056 174.56-2.816 30.688-2.08 45.76-6.56 59.648-31.264C504.704 373.504 512 330.688 512 256.192v-.256c0-74.848-7.296-117.344-21.76-142.016zM192 352V160l160 96-160 96z"/></svg></svg>